<svg xmlns="http://www.w3.org/2000/svg" id="Layer_2" viewBox="0 0 116.7 100.24"><g id="Illustration"><g><g><path d="M52.28,87.74h2.26v2.81h-2.26v3.7h-3.74v-3.7h-6.99v-2.81l6.46-9.75h4.27v9.75Zm-3.58,0v-5.4c0-.12,0-.38,.02-.77l.02-.67-4.39,6.84h4.34Z" style="fill:#007cbf;"></path><path d="M56.72,94.24v-3.62h3.62v3.62h-3.62Z" style="fill:#007cbf;"></path><path d="M74.46,81.09c-1.18,1.34-2.02,2.71-3.07,4.97-.84,1.82-1.46,4.8-1.46,7.01,0,.26,.02,.67,.05,1.18h-4.3c-.14-4.08,2.23-9.67,5.42-12.7h-8.11l.29-3.31h11.18v2.86Z" style="fill:#007cbf;"></path></g><path d="M29.29,22.76v-2.37h-.04c-1.09,1.82-3.02,2.75-5.23,2.75-4.5,0-8.14-3.37-8.14-7.81,0-4.91,3.53-8.34,8.05-8.34,2.25,0,4.13,.83,5.33,2.58h.06v-2.17h2.89v15.36h-2.91Zm.06-7.66c0-2.99-2.17-5.49-5.35-5.49-2.89,0-5.23,2.46-5.23,5.49s2.37,5.41,5.23,5.41c2.97-.02,5.37-2.44,5.35-5.41Zm15.96,7.66V14.39c0-3.24-1.28-4.77-3.82-4.77s-4.05,1.86-4.05,4.75v8.4h-2.89V7.41h2.7v1.65h.06c1.12-1.45,2.71-2.04,4.5-2.04,3.68,0,6.4,2.33,6.4,6.57v9.19l-2.89-.02h0Zm42.15,0v-2.37h-.06c-1.09,1.82-3.02,2.77-5.22,2.77-4.5,0-8.14-3.37-8.14-7.81,0-4.91,3.51-8.34,8.05-8.34,2.25,0,4.13,.83,5.33,2.58h.06v-2.17h2.85v15.36h-2.87v-.02Zm.06-7.66c0-2.99-2.17-5.49-5.35-5.49-2.89,0-5.23,2.46-5.23,5.49s2.37,5.41,5.23,5.41c2.97-.02,5.35-2.44,5.35-5.41Zm7.21,7.66V10.04h-2.07v-2.64h2.07V2.25h2.87V7.41h2.52v2.64h-2.52v12.72h-2.87Zm8.98-6.44c.66,2.54,2.7,4.19,5.04,4.19,1.82,.02,3.51-.97,4.38-2.58h2.89c-1.12,3.12-4.07,5.2-7.39,5.22-4.32,0-7.83-3.82-7.83-7.93,0-4.85,3.66-8.24,7.74-8.24,4.32-.08,7.89,3.35,7.97,7.68v.23c.02,.48-.02,.97-.08,1.45l-12.72-.02h0Zm9.93-2.21c-.21-2.62-2.52-4.5-4.98-4.5s-4.71,1.86-4.94,4.5h9.93ZM12.39,11.62c-.43-.43-.89-.79-1.42-1.11,.17-.17,.35-.37,.5-.58,.85-1.18,1.28-2.62,1.16-4.07-.1-1.51-.74-2.95-1.8-4.03C9.59,.62,7.93-.04,6.2,0H.19V23.11H7.27c2.66,0,4.28-1.16,5.2-2.15,1.16-1.28,1.8-2.95,1.8-4.69,0-1.71-.68-3.39-1.88-4.65ZM6.18,2.72c2.44,0,3.63,1.67,3.74,3.32,.08,1.71-1.12,3.2-2.83,3.47H2.85V2.72h3.33Zm1.07,17.74H2.87V12.22h3.99c3.45,0,4.67,2.21,4.67,4.11s-1.34,4.13-4.28,4.13h0ZM71.68,7.41c-2.73-.19-3.78,1.16-3.78,1.16v-1.16h-2.87v15.36h2.89V14.14c0-.62,.1-1.26,.29-1.86,.62-1.88,2.66-2.48,4.65-1.74l1.18-2.52c-.74-.35-1.55-.54-2.37-.6ZM50.5,2.25h2.89V22.76h-2.89V2.25Zm9.36,20.51l-6.36-7.68,5.7-7.68h3.26l-5.62,7.68,6.42,7.68h-3.39Z" style="fill:#004071;"></path><g><polygon points="9.56 43.21 12.51 49.19 19.1 50.14 14.33 54.8 15.45 61.37 9.56 58.26 3.66 61.37 4.78 54.8 0 50.14 6.61 49.19 9.56 43.21" style="fill:#007cbf;"></polygon><polygon points="33.98 43.21 36.93 49.19 43.53 50.14 38.75 54.8 39.88 61.37 33.98 58.26 28.08 61.37 29.21 54.8 24.43 50.14 31.03 49.19 33.98 43.21" style="fill:#007cbf;"></polygon><polygon points="58.37 43.21 61.32 49.19 67.92 50.14 63.15 54.8 64.27 61.37 58.37 58.26 52.47 61.37 53.6 54.8 48.83 50.14 55.42 49.19 58.37 43.21" style="fill:#007cbf;"></polygon><polygon points="82.77 43.21 85.72 49.19 92.31 50.14 87.54 54.8 88.67 61.37 82.77 58.26 76.87 61.37 78 54.8 73.22 50.14 79.82 49.19 82.77 43.21" style="fill:#007cbf;"></polygon><polygon points="107.14 43.21 110.09 49.19 116.69 50.14 111.92 54.8 113.04 61.37 107.14 58.26 101.24 61.37 102.37 54.8 97.6 50.14 104.19 49.19 107.14 43.21" style="fill:#9ab3ba;"></polygon><polyline points="107.14 43.21 104.19 49.19 97.6 50.14 102.37 54.8 101.24 61.37 107.14 58.26 113.04 61.37" style="fill:#007cbf;"></polyline></g></g></g></svg>