<svg xmlns="http://www.w3.org/2000/svg" id="Layer_2" viewBox="0 0 161.2 98.55"><g id="Illustration"><g><g><path d="M74.53,86.05h2.26v2.81h-2.26v3.7h-3.74v-3.7h-6.99v-2.81l6.46-9.75h4.27v9.75Zm-3.58,0v-5.4c0-.12,0-.38,.02-.77l.02-.67-4.39,6.84h4.34Z" style="fill:#007cbf;"></path><path d="M78.97,92.55v-3.62h3.62v3.62h-3.62Z" style="fill:#007cbf;"></path><path d="M88.93,79.83l-.24,3.55c.98-.98,1.94-1.37,3.41-1.37,3,0,5.18,2.16,5.18,5.11,0,3.48-2.42,5.66-6.24,5.66-1.87,0-3.34-.48-4.51-1.49-.94-.82-1.39-1.56-1.78-3.05l3.5-.53c.38,1.44,1.22,2.11,2.69,2.11s2.57-1.03,2.57-2.45-1.13-2.52-2.52-2.52c-.98,0-1.8,.43-2.3,1.25l-3.07-.5,.62-9.07h10.08l-.41,3.29h-6.98Z" style="fill:#007cbf;"></path></g><g><g><path d="M148.7,7.96h-3.11l-.39-3.44c-.03-.3-.29-.53-.59-.53h-3.47c-.24,0-.43,.19-.43,.43v3.54l.03,10.08c0,.81,.09,1.55,.27,2.2,.18,.66,.48,1.23,.89,1.7,.41,.48,.96,.84,1.65,1.09,.69,.25,1.54,.38,2.55,.38,.53,0,1.05-.05,1.58-.14,.38-.06,.7-.14,.99-.22,.19-.05,.31-.23,.31-.43l-.05-2.74c0-.27-.26-.47-.52-.42-.05,.01-.11,.02-.17,.03-.27,.04-.53,.06-.77,.06-.71,0-1.2-.18-1.47-.53-.27-.36-.41-.89-.41-1.6v-5.78h3.11c.24,0,.43-.19,.43-.43v-2.83c0-.24-.19-.43-.43-.43Z" style="fill:#004071;"></path><path d="M13.69,9.35c-.43-.58-1.01-1.05-1.71-1.41-.69-.35-1.52-.53-2.49-.54h-.09c-.05,0-.11,0-.16,0-1.12,.03-2.08,.24-2.88,.63-.72,.36-1.31,.75-1.76,1.17l-.29-.96c-.08-.25-.31-.42-.57-.42H.43c-.24,0-.43,.19-.43,.43v14.23c0,.24,.19,.43,.43,.43H4.57c.24,0,.43-.19,.43-.43v-7.75c0-.42,.06-.83,.17-1.23,.11-.39,.28-.74,.5-1.05,.22-.3,.5-.54,.83-.71,.33-.17,.72-.26,1.17-.26s.81,.09,1.11,.26c.29,.17,.52,.4,.68,.7,.16,.29,.28,.63,.35,1.02,.07,.38,.11,.79,.11,1.21v7.81c0,.24,.19,.43,.43,.43h4.13c.24,0,.43-.19,.43-.43V13.58c0-.75-.1-1.5-.29-2.24-.19-.75-.51-1.41-.94-1.99Z" style="fill:#004071;"></path><path d="M60.51,1.91h-4.1c-.24,0-.43,.19-.43,.43v7.08h-.06c-.42-.51-1.02-.97-1.79-1.39-.77-.42-1.71-.64-2.82-.64s-2.08,.21-2.96,.64c-.88,.42-1.63,1-2.24,1.73-.62,.73-1.09,1.57-1.42,2.53-.33,.96-.5,1.97-.5,3.02s.16,2.06,.49,3.03c.32,.97,.79,1.82,1.41,2.56,.62,.74,1.37,1.33,2.26,1.77,.89,.44,1.9,.67,3.03,.67,.14,0,.27,0,.41-.01,1.18-.03,2.19-.24,3.02-.66,.72-.36,1.3-.74,1.76-1.16l.32,.99c.08,.25,.31,.41,.57,.41h3.07c.24,0,.43-.19,.43-.43V2.35c0-.24-.19-.43-.43-.43Zm-9.51,16.97c-.44-.22-.82-.52-1.12-.88-.3-.36-.53-.78-.68-1.26-.15-.47-.23-.95-.23-1.44s.08-.96,.23-1.43c.15-.46,.38-.87,.68-1.23,.3-.35,.68-.64,1.12-.86,.44-.22,.96-.33,1.55-.33s1.07,.11,1.52,.33c.44,.22,.82,.52,1.14,.88,.31,.36,.56,.78,.73,1.24,.17,.47,.26,.94,.26,1.42s-.09,.96-.26,1.42c-.17,.47-.41,.88-.73,1.24-.31,.36-.69,.66-1.14,.88-.44,.22-.95,.33-1.52,.33s-1.1-.11-1.55-.33Z" style="fill:#004071;"></path><path d="M87.73,7.82h-4.21c-.2,0-.37,.13-.42,.32l-2.55,9.23h-.06l-2.7-9.24c-.05-.19-.22-.31-.42-.31h-4.35c-.19,0-.37,.13-.42,.32l-2.61,9.23h-.09l-2.52-9.23c-.05-.19-.22-.32-.42-.32h-4.42c-.3,0-.51,.29-.41,.58l4.91,14.23c.06,.18,.23,.29,.41,.29h4.37c.19,0,.36-.12,.42-.31l2.82-9.09h.06l2.87,9.09c.06,.18,.22,.3,.41,.3h4.37c.19,0,.35-.12,.41-.29l4.94-14.23c.1-.28-.11-.58-.41-.58Z" style="fill:#004071;"></path><path d="M108.56,1.91h4.19c.24,0,.43,.19,.43,.43V22.48c0,.24-.19,.43-.43,.43h-4.19c-.24,0-.43-.19-.43-.43V2.35c0-.24,.19-.43,.43-.43Z" style="fill:#004071;"></path><rect x="116.43" y="1.91" width="5.06" height="21" rx=".43" ry=".43" style="fill:#004071;"></rect><path d="M104.5,7.3h-3.46c-.26,0-.5,.17-.57,.43l-.4,1.37c-.43-.38-.98-.73-1.64-1.07-.85-.42-1.89-.64-3.12-.64h0c-1.09,0-2.08,.21-2.96,.64-.88,.42-1.63,1-2.24,1.73-.62,.73-1.09,1.57-1.42,2.53-.33,.96-.5,1.97-.5,3.02s.16,2.06,.49,3.03c.32,.97,.79,1.82,1.41,2.56,.62,.74,1.37,1.33,2.26,1.77,.89,.44,1.9,.67,3.03,.67,.26,0,.52-.01,.77-.04,.93-.08,1.73-.28,2.42-.63,.81-.41,1.46-.85,1.94-1.33l.38,1.16c.08,.25,.31,.41,.57,.41h3.07c.24,0,.43-.19,.43-.43V7.74c0-.24-.19-.43-.43-.43Zm-10.63,10.7c-.3-.36-.53-.78-.68-1.26-.15-.47-.23-.95-.23-1.44s.08-.96,.23-1.43c.15-.46,.38-.87,.68-1.23,.3-.35,.68-.64,1.12-.86,.44-.22,.96-.33,1.55-.33s1.07,.11,1.52,.33c.44,.22,.82,.52,1.14,.88,.31,.36,.56,.78,.73,1.24,.17,.47,.26,.94,.26,1.42s-.09,.96-.26,1.42c-.17,.47-.41,.88-.73,1.24-.31,.36-.69,.66-1.14,.88-.44,.22-.95,.33-1.52,.33s-1.1-.11-1.55-.33c-.45-.22-.82-.52-1.12-.88Z" style="fill:#004071;"></path><path d="M43.64,7.44h-.04l.06-.04c-.13,0-.25,0-.37,0-.1,0-.2,0-.3,0-.65,0-1.25,.12-1.8,.37-.23,.08-.45,.17-.65,.27-.8,.4-1.43,.84-1.9,1.31l-.3-1.07c-.07-.26-.31-.43-.57-.43h-3.28c-.24,0-.43,.19-.43,.43v14.21c0,.24,.19,.43,.43,.43h4.1c.24,0,.43-.19,.43-.43v-7.31c0-.3,.06-.65,.18-1.06,.12-.4,.32-.78,.59-1.12,.27-.34,.64-.63,1.09-.88,.45-.24,1.02-.36,1.68-.36,.2,0,.41,.01,.62,.03l.2,.02c.24,.02,.45-.15,.47-.39l.17-3.51c.03-.24-.15-.45-.38-.48Z" style="fill:#004071;"></path><path d="M30.19,9.52c-.67-.71-1.47-1.25-2.39-1.62-.93-.37-1.95-.56-3.06-.56s-2.22,.19-3.21,.58c-.99,.38-1.85,.92-2.58,1.62-.73,.7-1.3,1.55-1.73,2.55-.42,1-.64,2.12-.64,3.35s.22,2.41,.65,3.4c.43,.99,1.03,1.82,1.79,2.5,.76,.68,1.64,1.19,2.65,1.55,1.01,.35,2.08,.53,3.21,.53,1.54,0,2.88-.28,4.05-.83,.71-.34,1.34-.77,1.88-1.29,.21-.2,.21-.53,0-.73l-2.15-2.16c-.2-.2-.52-.21-.71,0-.29,.29-.62,.54-1.01,.75-.55,.29-1.21,.44-2,.44-.44,0-.87-.07-1.29-.21-.41-.14-.79-.34-1.12-.59-.33-.25-.61-.55-.82-.89-.21-.34-.34-.73-.38-1.15h10.94c.02-.18,.03-.37,.03-.58v-.61c0-1.29-.19-2.45-.56-3.46-.37-1.01-.89-1.87-1.56-2.58Zm-8.85,4.12c.02-.38,.12-.75,.3-1.11,.18-.35,.42-.66,.73-.92,.3-.26,.66-.47,1.06-.62,.4-.15,.85-.23,1.33-.23,.99,0,1.73,.28,2.23,.85,.5,.57,.74,1.24,.74,2.03h-6.4Z" style="fill:#004071;"></path><path d="M136.99,9.52c-.67-.71-1.47-1.25-2.39-1.62-.93-.37-1.95-.56-3.06-.56s-2.22,.19-3.21,.58c-.99,.38-1.85,.92-2.58,1.62s-1.3,1.55-1.73,2.55c-.42,1-.64,2.12-.64,3.35s.22,2.41,.65,3.4c.43,.99,1.03,1.82,1.79,2.5,.76,.68,1.64,1.19,2.65,1.55,1.01,.35,2.08,.53,3.21,.53,1.54,0,2.88-.28,4.05-.83,.71-.34,1.34-.77,1.88-1.29,.21-.2,.21-.53,0-.73l-2.15-2.16c-.2-.2-.52-.21-.71,0-.29,.29-.62,.54-1.01,.75-.55,.29-1.21,.44-2,.44-.44,0-.87-.07-1.29-.21-.41-.14-.79-.34-1.12-.59-.33-.25-.61-.55-.82-.89-.21-.34-.34-.73-.38-1.15h10.94c.02-.18,.03-.37,.03-.58v-.61c0-1.29-.19-2.45-.56-3.46-.37-1.01-.89-1.87-1.56-2.58Zm-8.85,4.12c.02-.38,.12-.75,.3-1.11,.18-.35,.42-.66,.73-.92,.3-.26,.66-.47,1.06-.62,.4-.15,.85-.23,1.33-.23,.99,0,1.73,.28,2.23,.85,.5,.57,.74,1.24,.74,2.03h-6.4Z" style="fill:#004071;"></path></g><g><path d="M160.9,0h-1.1l-.66,1.89c-.08,.28-.17,.61-.27,.96h-.01c-.1-.39-.17-.68-.25-.97l-.66-1.87h-1.14l-.28,3.83h.73l.14-2.25c.01-.35,.03-.72,.03-1.07h.04c.08,.34,.2,.79,.27,1.08l.69,2.18h.79l.69-2.13c.11-.35,.23-.8,.32-1.14h.04c.01,.41,.01,.77,.03,1.07l.14,2.25h.76l-.3-3.83Z" style="fill:#004071;"></path><polygon points="153.63 3.83 154.39 3.83 154.39 .63 155.61 .63 155.61 0 152.4 0 152.4 .63 153.63 .63 153.63 3.83" style="fill:#004071;"></polygon></g></g><g><polygon points="31.8 42.11 34.75 48.08 41.35 49.04 36.58 53.69 37.7 60.26 31.8 57.16 25.9 60.26 27.03 53.69 22.26 49.04 28.85 48.08 31.8 42.11" style="fill:#007cbf;"></polygon><polygon points="56.23 42.11 59.18 48.08 65.78 49.04 61 53.69 62.13 60.26 56.23 57.16 50.33 60.26 51.46 53.69 46.68 49.04 53.28 48.08 56.23 42.11" style="fill:#007cbf;"></polygon><polygon points="80.62 42.11 83.57 48.08 90.17 49.04 85.4 53.69 86.52 60.26 80.62 57.16 74.72 60.26 75.85 53.69 71.08 49.04 77.67 48.08 80.62 42.11" style="fill:#007cbf;"></polygon><polygon points="105.02 42.11 107.97 48.08 114.56 49.04 109.79 53.69 110.92 60.26 105.02 57.16 99.12 60.26 100.25 53.69 95.47 49.04 102.07 48.08 105.02 42.11" style="fill:#007cbf;"></polygon><polygon points="129.39 42.11 132.34 48.08 138.94 49.04 134.17 53.69 135.29 60.26 129.39 57.16 123.49 60.26 124.62 53.69 119.85 49.04 126.44 48.08 129.39 42.11" style="fill:#9ab3ba;"></polygon><polyline points="129.39 57.16 123.49 60.26 124.62 53.69 119.85 49.04 126.44 48.08 129.39 42.11" style="fill:#007cbf;"></polyline></g></g></g></svg>