<svg xmlns="http://www.w3.org/2000/svg" id="Layer_2" viewBox="0 0 157.17 99.1"><g id="Illustration"><g><g><path d="M6.98,13.15c-1.97,0-4.28-.5-4.28-2.92,0-2.7,3.53-2.82,4.23-2.82,1.13,0,3.15,.2,3.78,1.49l.33,.66,2.04-.91-.53-.76c-1.26-1.84-2.95-2.6-5.64-2.6C3.73,5.29,.55,6.83,.55,10.26c0,3.2,2.34,5.04,6.43,5.04,2.17,0,4.71,.48,4.71,2.77s-2.9,2.95-4.59,2.95c-1.84,0-3.53-.71-5.01-2.09l-.5-.45-1.59,1.39,.58,.58c1.23,1.23,3.38,2.72,6.53,2.72,3.35,0,6.73-1.56,6.73-5.07,0-3.12-2.57-4.94-6.85-4.94" style="fill:#004071;"></path><path d="M34.47,5.27c-2.39,0-4.38,1.13-5.97,3.38-.83-2.09-2.7-3.38-5.07-3.38-2.07,0-3.93,.91-5.39,2.57v-2.32h-2.12V22.83h2.12V12.2c.68-2.39,2.6-4.79,5.39-4.79,2.12,0,3.53,1.01,3.53,5.87v9.55h2.12V12.25s.03-.05,.03-.08c.13-.4,.43-1.49,1.16-2.47,.76-1.03,2.12-2.27,4.21-2.27,2.55,0,3.53,1.64,3.53,5.87v9.55h2.14V13.28c-.03-1.99-.03-8.01-5.67-8.01" style="fill:#004071;"></path><path d="M55.89,20.69V12.1c0-4.16-2.57-6.83-6.55-6.83-1.81,0-3.75,.71-5.92,2.19l-.66,.45,1.29,1.71,.6-.43c1.61-1.16,3.33-1.81,4.66-1.81,2.67,0,4.41,1.84,4.41,4.71v.76c-1.06-.3-2.62-.6-4.54-.6-3.63,0-7.28,1.61-7.28,5.27,0,3.15,2.57,5.59,5.87,5.59,2.29,0,4.38-.68,5.95-1.94,.15,.93,.86,1.59,1.79,1.64l.78,.03v-2.17h-.4v.03Zm-8.06,.3c-1.84,0-3.75-1.31-3.75-3.48,0-3.05,4.61-3.12,5.14-3.12,1.61,0,3.12,.25,4.54,.71v2.6c0,.13-.05,.4-.33,.83-1.16,1.84-3.75,2.47-5.59,2.47" style="fill:#004071;"></path><path d="M66.3,5.52c-2.14,0-3.96,.81-5.39,2.37v-2.37h-2.12V22.83h2.12V12.2c.78-2.75,2.8-4.44,5.42-4.54l.73-.03v-2.09h-.76v-.03Z" style="fill:#004071;"></path><path d="M76.86,19.86l-.6,.3s-.05,.03-.08,.05c-.66,.4-1.44,.63-2.12,.63-.58,0-1.29-.28-1.36-1.08V7.66h3.81v-2.12h-3.81V.03h-2.12V5.54h-2.29v2.12h2.29v12.15c0,1.79,1.54,3.2,3.5,3.2s3.25-.93,3.43-1.11l.45-.45-1.11-1.59Z" style="fill:#004071;"></path><path d="M93.16,20.69V12.1c0-4.16-2.57-6.83-6.55-6.83-1.81,0-3.75,.71-5.9,2.19l-.66,.45,1.29,1.71,.6-.43c1.61-1.16,3.33-1.81,4.66-1.81,2.67,0,4.41,1.84,4.41,4.71v.76c-1.08-.3-2.62-.6-4.54-.6-3.63,0-7.28,1.61-7.28,5.27,0,3.15,2.57,5.59,5.87,5.59,2.29,0,4.38-.68,5.95-1.94,.15,.93,.86,1.59,1.79,1.64l.81,.03v-2.17h-.45v.03Zm-8.06,.3c-1.84,0-3.75-1.31-3.75-3.48,0-3.05,4.61-3.12,5.14-3.12,1.61,0,3.12,.25,4.54,.71v2.6c0,.13-.05,.4-.33,.83-1.16,1.84-3.73,2.47-5.59,2.47" style="fill:#004071;"></path><path d="M102.06,13.15c-1.97,0-4.28-.5-4.28-2.92,0-2.7,3.53-2.82,4.23-2.82,1.13,0,3.15,.2,3.78,1.49l.33,.66,2.04-.91-.53-.76c-1.26-1.84-2.95-2.6-5.64-2.6-3.18,0-6.35,1.54-6.35,4.96,0,3.2,2.34,5.04,6.43,5.04,2.14,0,4.71,.48,4.71,2.77s-2.9,2.95-4.59,2.95c-1.84,0-3.53-.71-5.01-2.09l-.5-.45-1.59,1.39,.58,.58c1.23,1.23,3.38,2.72,6.53,2.72,3.35,0,6.73-1.56,6.73-5.07,0-3.12-2.55-4.94-6.85-4.94" style="fill:#004071;"></path><path d="M116.85,13.15c-1.97,0-4.28-.5-4.28-2.92,0-2.7,3.53-2.82,4.23-2.82,1.13,0,3.15,.2,3.78,1.49l.33,.66,2.04-.91-.53-.76c-1.26-1.84-2.95-2.6-5.64-2.6-3.18,0-6.35,1.54-6.35,4.96,0,3.2,2.34,5.04,6.43,5.04,2.14,0,4.71,.48,4.71,2.77s-2.9,2.95-4.59,2.95c-1.84,0-3.53-.71-5.01-2.09l-.5-.45-1.59,1.39,.58,.58c1.23,1.23,3.38,2.72,6.53,2.72,3.35,0,6.73-1.56,6.73-5.07,0-3.12-2.57-4.94-6.85-4.94" style="fill:#004071;"></path><path d="M141.29,14.16c-.08-5.09-3.73-8.9-8.49-8.9-5.09,0-7.96,4.59-8.09,8.95,0,4.31,3.35,8.92,8.37,8.92,2.62,0,5.87-1.46,6.98-4.26l.33-.81-2.02-.53-.28,.58c-.76,1.69-2.82,2.87-4.99,2.87-3.3,0-5.59-2.8-6.12-5.72h14.34v-1.11h-.03Zm-14.39-1.01c.45-2.92,2.55-5.75,5.9-5.75s5.7,2.32,6.22,5.75h-12.12Z" style="fill:#004071;"></path><path d="M150.49,19.86l-.6,.3s-.03,.03-.08,.05c-.66,.4-1.44,.63-2.12,.63-.58,0-1.29-.28-1.36-1.08V7.66h3.81v-2.12h-3.83V.03h-2.12V5.54h-2.29v2.12h2.29v12.15c0,1.79,1.54,3.2,3.5,3.2s3.25-.93,3.43-1.11l.45-.45-1.08-1.59Z" style="fill:#004071;"></path><path d="M150.11,.55V0h2.85V.55h-1.08V3.35h-.66V.55h-1.11Zm4.38-.55l.86,2.39,.86-2.39h.96V3.35h-.6V.66l-.93,2.7h-.53l-.93-2.7V3.35h-.6V0h.93Z" style="fill:#004071;"></path></g><g><path d="M72.51,86.59h2.26v2.81h-2.26v3.7h-3.74v-3.7h-6.99v-2.81l6.46-9.75h4.27v9.75Zm-3.58,0v-5.4c0-.12,0-.38,.02-.77l.02-.67-4.39,6.84h4.34Z" style="fill:#007cbf;"></path><path d="M76.95,93.1v-3.62h3.62v3.62h-3.62Z" style="fill:#007cbf;"></path><path d="M95.24,88.39c0,3.05-2.54,4.94-6.62,4.94-3.74,0-6.07-1.75-6.07-4.56,0-1.73,.82-2.76,2.86-3.55-1.63-.98-2.3-2.06-2.3-3.65,0-1.3,.62-2.59,1.63-3.43,1.03-.86,2.5-1.3,4.27-1.3,3.38,0,5.69,1.7,5.69,4.22,0,1.56-.72,2.57-2.42,3.38,2.14,.96,2.98,2.06,2.98,3.94Zm-9.31,.22c0,1.37,1.08,2.16,2.95,2.16,1.68,0,2.74-.65,2.74-1.7,0-.77-.5-1.42-1.44-1.82-.6-.26-.82-.34-2.26-.82-1.42,.46-1.99,1.1-1.99,2.18Zm5.5-7.22c0-1.3-.98-2.11-2.57-2.11-1.32,0-2.18,.67-2.18,1.7,0,1.1,.58,1.54,3.14,2.42,1.13-.38,1.61-.98,1.61-2.02Z" style="fill:#007cbf;"></path></g><g><polygon points="29.79 42.56 32.74 48.53 39.34 49.49 34.56 54.15 35.69 60.72 29.79 57.61 23.89 60.72 25.02 54.15 20.24 49.49 26.84 48.53 29.79 42.56" style="fill:#007cbf;"></polygon><polygon points="54.22 42.56 57.16 48.53 63.76 49.49 58.99 54.15 60.11 60.72 54.22 57.61 48.32 60.72 49.44 54.15 44.67 49.49 51.27 48.53 54.22 42.56" style="fill:#007cbf;"></polygon><polygon points="78.61 42.56 81.56 48.53 88.16 49.49 83.38 54.15 84.51 60.72 78.61 57.61 72.71 60.72 73.84 54.15 69.06 49.49 75.66 48.53 78.61 42.56" style="fill:#007cbf;"></polygon><polygon points="103 42.56 105.95 48.53 112.55 49.49 107.78 54.15 108.9 60.72 103 57.61 97.1 60.72 98.23 54.15 93.46 49.49 100.05 48.53 103 42.56" style="fill:#007cbf;"></polygon><polygon points="127.38 42.56 130.33 48.53 136.92 49.49 132.15 54.15 133.28 60.72 127.38 57.61 121.48 60.72 122.61 54.15 117.83 49.49 124.43 48.53 127.38 42.56" style="fill:#9ab3ba;"></polygon><polygon points="133.07 53.25 133.07 48.93 130.33 48.53 127.38 42.56 124.43 48.53 117.83 49.49 122.61 54.15 121.48 60.72 127.38 57.61 133.28 60.72 132.15 54.15 133.07 53.25" style="fill:#007cbf;"></polygon></g></g></g></svg>