<svg xmlns="http://www.w3.org/2000/svg" id="Layer_2" data-name="Layer 2" viewBox="0 0 133.14 99.2"><g id="Illustration"><g><path d="M60.5,86.69h2.26v2.81h-2.26v3.7h-3.74v-3.7h-6.99v-2.81l6.46-9.75h4.27v9.75ZM56.92,86.69v-5.4c0-.12,0-.38.02-.77l.02-.67-4.39,6.84h4.34Z" style="fill: #007cbf; stroke-width: 0px;"></path><path d="M64.94,93.2v-3.62h3.62v3.62h-3.62Z" style="fill: #007cbf; stroke-width: 0px;"></path><path d="M83.23,88.49c0,3.05-2.54,4.94-6.62,4.94-3.74,0-6.07-1.75-6.07-4.56,0-1.73.82-2.76,2.86-3.55-1.63-.98-2.3-2.06-2.3-3.65,0-1.3.62-2.59,1.63-3.43,1.03-.86,2.5-1.3,4.27-1.3,3.38,0,5.69,1.7,5.69,4.22,0,1.56-.72,2.57-2.42,3.38,2.14.96,2.98,2.06,2.98,3.94ZM73.91,88.71c0,1.37,1.08,2.16,2.95,2.16,1.68,0,2.74-.65,2.74-1.7,0-.77-.5-1.42-1.44-1.82-.6-.26-.82-.34-2.26-.82-1.42.46-1.99,1.1-1.99,2.18ZM79.41,81.48c0-1.3-.98-2.11-2.57-2.11-1.32,0-2.18.67-2.18,1.7,0,1.1.58,1.54,3.14,2.42,1.13-.38,1.61-.98,1.61-2.02Z" style="fill: #007cbf; stroke-width: 0px;"></path></g><g><polygon points="17.77 42.27 20.72 48.25 27.32 49.21 22.55 53.86 23.67 60.43 17.77 57.33 11.87 60.43 13 53.86 8.23 49.21 14.82 48.25 17.77 42.27" style="fill: #007cbf; stroke-width: 0px;"></polygon><polygon points="42.2 42.27 45.15 48.25 51.74 49.21 46.97 53.86 48.1 60.43 42.2 57.33 36.3 60.43 37.43 53.86 32.65 49.21 39.25 48.25 42.2 42.27" style="fill: #007cbf; stroke-width: 0px;"></polygon><polygon points="66.59 42.27 69.54 48.25 76.14 49.21 71.37 53.86 72.49 60.43 66.59 57.33 60.69 60.43 61.82 53.86 57.05 49.21 63.64 48.25 66.59 42.27" style="fill: #007cbf; stroke-width: 0px;"></polygon><polygon points="90.99 42.27 93.94 48.25 100.53 49.21 95.76 53.86 96.89 60.43 90.99 57.33 85.09 60.43 86.21 53.86 81.44 49.21 88.04 48.25 90.99 42.27" style="fill: #007cbf; stroke-width: 0px;"></polygon><polygon points="115.36 42.27 118.31 48.25 124.91 49.21 120.14 53.86 121.26 60.43 115.36 57.33 109.46 60.43 110.59 53.86 105.82 49.21 112.41 48.25 115.36 42.27" style="fill: #9ab3ba; stroke-width: 0px;"></polygon></g><polygon points="121.05 52.97 121.05 48.65 118.31 48.25 115.36 42.27 112.41 48.25 105.82 49.21 110.59 53.86 109.46 60.43 115.36 57.33 121.26 60.43 120.14 53.86 121.05 52.97" style="fill: #007cbf; stroke-width: 0px;"></polygon><g><path d="M19.51,15.87V.28h-4.89v14.91c0,2.32-1.98,3.7-4.78,3.7-3.2,0-4.95-1.38-4.95-3.73V.28H0v15.3c0,5.24,4.16,7.33,9.73,7.33,3.85,0,6.94-1.05,8.56-3.18v2.89h4.36v-4.55h-3.49c.23-.67.35-1.4.35-2.21Z" style="fill: #004071; stroke-width: 0px;"></path><path d="M42.9,16.18c0-3.82-2.32-5.66-6.76-6.51-.51-.09-1.98-.4-3.11-.62-3.65-.74-4.98-1.39-4.98-3.03,0-1.27.74-2.09,4.44-2.09,2.83,0,4.04.65,4.64,1.9.17.34.31.85.31,1.1h5.04c0-.57-.23-1.41-.51-2.15-1.13-2.83-3.76-4.78-9.36-4.78-6.56,0-9.62,2.54-9.62,6.34s2.69,5.71,7.04,6.53c.99.2,2.63.51,3.28.62,3.62.68,4.55,1.33,4.55,3.17,0,1.47-1.19,2.4-4.58,2.4-2.97,0-4.44-.56-5.06-1.86-.17-.34-.31-1.02-.31-1.41h-5.04c0,.45.09,1.56.32,2.29.9,2.83,3.33,4.87,10.09,4.87,4.25,0,7.07-1.19,8.51-3.16v2.85h4.36v-4.55h-3.52c.18-.59.27-1.22.27-1.9Z" style="fill: #004071; stroke-width: 0px;"></path><polygon points="61.93 14.68 53.33 .28 47.65 .28 47.65 22.63 52.31 22.63 52.31 7.5 61.31 22.63 66.6 22.63 66.6 .28 61.93 .28 61.93 14.68" style="fill: #004071; stroke-width: 0px;"></polygon><path d="M77.41,5.76c-3.6,0-6.45,1.35-8.03,3.66-.93,1.32-1.44,3-1.44,4.88,0,2.07.45,3.72,1.26,5.01,1.59,2.52,4.55,3.6,8.21,3.6,2.67,0,4.68-.57,6.12-1.5,1.65-1.05,2.61-2.55,2.99-4.14h-4.71c-.09.36-.51.9-1.38,1.29-.69.3-1.68.54-3.03.54-1.8,0-3.14-.48-3.84-1.23-.57-.63-.9-1.2-.9-1.95h13.97c.27-2.48-.18-4.85-1.41-6.65-1.47-2.13-4.05-3.51-7.82-3.51ZM72.64,12.77c0-.48.45-1.47,1.02-1.98.81-.72,2.07-1.17,3.78-1.17,1.8,0,2.94.57,3.63,1.26.6.63.8,1.41.8,1.89h-9.23Z" style="fill: #004071; stroke-width: 0px;"></path><path d="M111.35,6.15l-3.86,12.26-3.72-12.26h-5.33l-3.63,12.26-3.96-12.26h-5l5.9,16.48h5.7s3.24-9.47,3.27-10.04c.03-.18.21-1.16.21-1.16,0,0,.18.98.21,1.19.06.54,3.3,10.01,3.3,10.01h5.66l5.96-16.48h-4.71Z" style="fill: #004071; stroke-width: 0px;"></path><path d="M127.44,12.62c-.57-.09-2.88-.42-3.83-.57-2.34-.36-2.85-.63-2.85-1.35,0-.78.78-1.2,3.42-1.2,2.28,0,3.14.39,3.48.84.15.21.21.72.21.9h4.65c0-.33-.09-1.34-.3-1.98-.84-2.37-3.69-3.53-8.21-3.53-5.31,0-7.94,1.92-7.94,4.85,0,3.15,1.74,4.74,5.36,5.25.99.15,2.97.45,3.59.54,2.43.36,3.42.57,3.42,1.5s-.84,1.44-3.57,1.44-3.87-.21-4.17-.99c-.12-.33-.15-.63-.15-.84h-4.76c0,.54.03.99.18,1.65.69,2.7,3.33,3.8,8.9,3.8s8.27-1.74,8.27-5.15c0-3.09-1.74-4.56-5.7-5.16Z" style="fill: #004071; stroke-width: 0px;"></path><path d="M70.65,4.81c.43,0,.89-.07,1.24-.22.06.06.14.12.21.17h1.71c-.33-.26-.66-.52-.96-.74.36-.34.59-.83.61-1.39h-1.26c-.01.26-.1.5-.24.68-.26-.21-.52-.44-.72-.61.45-.28.88-.67.9-1.24,0-.03,0-.15,0-.19-.03-.54-.53-1.04-1.39-1.04-.94,0-1.48.52-1.5,1.07v.23c0,.27.11.58.37.95-.53.25-1.02.57-1.03,1.08,0,.06,0,.16,0,.23.04.82,1,1.02,2.07,1.02ZM70.43,1.48c.02-.16.1-.29.3-.29s.28.13.28.28v.09c-.01.17-.17.32-.4.46-.11-.15-.17-.29-.18-.41,0-.04,0-.09,0-.12ZM70.27,3.23c.19.19.46.4.71.62-.11.03-.27.04-.39.04-.47,0-.67-.08-.67-.3,0-.13.14-.25.35-.37Z" style="fill: #004071; stroke-width: 0px;"></path><path d="M77.69,4.76s.69-2.58.69-2.73c.02.14.69,2.73.69,2.73h1.5l1.26-4.49h-1.33s-.67,2.77-.67,2.91c0-.14-.68-2.91-.68-2.91h-1.41s-.66,2.77-.66,2.91c0-.14-.69-2.91-.69-2.91h-1.47l1.29,4.49h1.49Z" style="fill: #004071; stroke-width: 0px;"></path><path d="M84.28,4.83c1.64,0,2.39-.78,2.39-2.35s-.7-2.29-2.39-2.29-2.4.87-2.4,2.3c0,1.53.75,2.34,2.4,2.34ZM84.28,1.25c.76,0,1.01.37,1.01,1.26,0,1-.37,1.27-1,1.27s-1-.32-1-1.27c0-.9.26-1.26.99-1.26Z" style="fill: #004071; stroke-width: 0px;"></path><path d="M88.63,3.24h.93l.79,1.52h1.54l-1.05-1.8c.21-.05.41-.19.55-.43.12-.2.2-.49.2-.85,0-.42-.08-.72-.26-.95-.23-.3-.62-.47-1.21-.47h-2.84v4.49h1.35v-1.52ZM88.65,1.33h1.16c.2,0,.33.04.4.19.04.07.05.19.05.29,0,.09-.02.21-.05.29-.05.11-.19.15-.36.15h-1.19v-.92Z" style="fill: #004071; stroke-width: 0px;"></path><polygon points="96.09 3.65 93.93 3.65 93.93 .27 92.54 .27 92.54 4.76 96.09 4.76 96.09 3.65" style="fill: #004071; stroke-width: 0px;"></polygon><path d="M100.85,4.11c.25-.37.32-.72.32-1.68,0-.82-.05-1.19-.33-1.57-.28-.39-.78-.58-1.59-.58h-2.46v4.49h2.53c.81,0,1.27-.24,1.54-.65ZM98.14,3.7V1.32h.87c.34,0,.5.05.68.24.11.13.14.54.14.87,0,.37-.01.87-.13,1.02-.15.18-.34.26-.69.26h-.87Z" style="fill: #004071; stroke-width: 0px;"></path><path d="M104.8,3.24h.93l.79,1.52h1.54l-1.05-1.8c.21-.05.41-.19.55-.43.12-.2.2-.49.2-.85,0-.42-.08-.72-.26-.95-.23-.3-.62-.47-1.21-.47h-2.84v4.49h1.35v-1.52ZM104.82,1.33h1.16c.2,0,.33.04.4.19.03.07.04.19.04.29,0,.09-.01.21-.05.29-.05.11-.2.15-.37.15h-1.19v-.92Z" style="fill: #004071; stroke-width: 0px;"></path><polygon points="112.61 3.72 110.12 3.72 110.12 3.05 112.5 3.05 112.5 1.98 110.12 1.98 110.12 1.33 112.59 1.33 112.59 .27 108.77 .27 108.77 4.76 112.61 4.76 112.61 3.72" style="fill: #004071; stroke-width: 0px;"></polygon><path d="M114.88,3.36s1.21,0,1.38,0c.55-.01.98-.15,1.24-.46.22-.24.33-.59.33-1.09,0-.56-.14-.94-.4-1.17-.25-.26-.63-.38-1.17-.38h-2.76v4.49h1.38v-1.41h0ZM114.86,1.32h1.1c.23,0,.36.07.43.21.04.06.06.18.06.32,0,.13-.01.22-.06.3-.07.12-.19.21-.45.21h-1.08v-1.04h0Z" style="fill: #004071; stroke-width: 0px;"></path><path d="M120.71,4.83c1.64,0,2.39-.78,2.39-2.35s-.7-2.29-2.39-2.29-2.4.87-2.4,2.3c0,1.53.75,2.34,2.4,2.34ZM120.71,1.25c.76,0,1,.37,1,1.26,0,1-.37,1.27-1,1.27s-1-.32-1-1.27c0-.9.26-1.26,1-1.26Z" style="fill: #004071; stroke-width: 0px;"></path><path d="M125.09,3.24h.93l.79,1.52h1.54l-1.05-1.8c.21-.05.41-.19.56-.43.12-.2.2-.49.2-.85,0-.42-.09-.72-.26-.95-.23-.3-.62-.47-1.22-.47h-2.84v4.49h1.35v-1.52ZM125.1,1.33h1.16c.2,0,.33.04.4.19.03.07.04.19.04.29,0,.09-.02.21-.05.29-.05.11-.2.15-.37.15h-1.19v-.92Z" style="fill: #004071; stroke-width: 0px;"></path><polygon points="129.88 4.76 131.28 4.76 131.28 1.35 132.71 1.35 132.71 .27 128.45 .27 128.45 1.35 129.88 1.35 129.88 4.76" style="fill: #004071; stroke-width: 0px;"></polygon></g></g></svg>